<svg width="16" height="16" viewBox="0 0 16 16" fill="none" xmlns="http://www.w3.org/2000/svg">
<rect width="16" height="16" rx="8" fill="#F39C12"/>
<path d="M8.01341 9.396C7.82941 9.396 7.68541 9.34 7.58141 9.228C7.47741 9.116 7.41341 8.952 7.38941 8.736L7.00541 4.632C6.96541 4.272 7.03341 3.984 7.20941 3.768C7.38541 3.544 7.65341 3.432 8.01341 3.432C8.35741 3.432 8.61741 3.544 8.79341 3.768C8.96941 3.984 9.03741 4.272 8.99741 4.632L8.61341 8.736C8.58941 8.952 8.52541 9.116 8.42141 9.228C8.32541 9.34 8.18941 9.396 8.01341 9.396ZM8.01341 12.06C7.69341 12.06 7.43741 11.964 7.24541 11.772C7.06141 11.58 6.96941 11.332 6.96941 11.028C6.96941 10.732 7.06141 10.492 7.24541 10.308C7.43741 10.116 7.69341 10.02 8.01341 10.02C8.33341 10.02 8.58141 10.116 8.75741 10.308C8.94141 10.492 9.03341 10.732 9.03341 11.028C9.03341 11.332 8.94141 11.58 8.75741 11.772C8.58141 11.964 8.33341 12.06 8.01341 12.06Z" fill="white"/>
</svg>
