<?xml version="1.0" encoding="UTF-8"?>
<svg xmlns="http://www.w3.org/2000/svg" xmlns:xlink="http://www.w3.org/1999/xlink" width="40px" height="40px" viewBox="0 0 40 38" version="1.1">
<g id="surface1">
<path style="fill:none;stroke-width:2.5;stroke-linecap:butt;stroke-linejoin:miter;stroke:rgb(49.803922%,54.901963%,55.29412%);stroke-opacity:1;stroke-miterlimit:4;" d="M 5.476465 15 C 5.476465 19.147821 5.476465 23.422081 6.923535 24.711143 C 8.373633 26.000206 10.707715 26.000206 15.375879 26.000206 C 20.041016 26.000206 22.375098 26.000206 23.825195 24.711143 C 25.275293 23.422081 25.275293 19.147821 25.275293 15 " transform="matrix(1.290323,0,0,1.266667,0,0)"/>
<path style="fill:none;stroke-width:2.5;stroke-linecap:butt;stroke-linejoin:miter;stroke:rgb(49.803922%,54.901963%,55.29412%);stroke-opacity:1;stroke-miterlimit:4;" d="M 18.300293 17.420847 L 24.908984 15.440995 C 25.562891 15.243627 25.892871 15.144942 26.09873 14.910567 C 26.141113 14.864309 26.177441 14.814967 26.210742 14.762541 C 26.374219 14.494243 26.374219 14.155016 26.374219 13.470395 C 26.374219 10.775082 26.374219 9.427426 25.635547 8.517681 C 25.493262 8.3419 25.332812 8.181538 25.157227 8.039679 C 24.249023 7.299548 22.898828 7.299548 20.204492 7.299548 L 10.547266 7.299548 C 7.849902 7.299548 6.502734 7.299548 5.594531 8.039679 C 5.418945 8.184622 5.258496 8.3419 5.116211 8.517681 C 4.374512 9.427426 4.374512 10.775082 4.374512 13.470395 C 4.374512 14.155016 4.374512 14.494243 4.541016 14.762541 C 4.574316 14.814967 4.610645 14.864309 4.65 14.910567 C 4.858887 15.144942 5.18584 15.243627 5.839746 15.440995 L 12.448438 17.420847 M 9.324219 7.299548 C 10.229395 7.277961 11.149707 6.701275 11.458496 5.847039 L 11.497852 5.73602 L 11.525098 5.649671 C 11.570508 5.510896 11.594727 5.439967 11.618945 5.378289 C 11.776367 4.992804 12.036719 4.659745 12.375781 4.416118 C 12.711816 4.172492 13.111426 4.030633 13.529199 4.002878 C 13.592773 3.999794 13.668457 3.999794 13.81377 3.999794 L 16.934961 3.999794 C 17.080273 3.999794 17.155957 3.999794 17.219531 4.002878 C 17.637305 4.030633 18.036914 4.172492 18.372949 4.416118 C 18.712012 4.659745 18.975391 4.992804 19.129785 5.378289 C 19.154004 5.439967 19.178223 5.510896 19.223633 5.649671 L 19.253906 5.73602 C 19.27207 5.79153 19.281152 5.822368 19.290234 5.847039 C 19.599023 6.701275 20.519336 7.277961 21.424512 7.299548 " transform="matrix(1.290323,0,0,1.266667,0,0)"/>
<path style="fill:none;stroke-width:2.5;stroke-linecap:round;stroke-linejoin:miter;stroke:rgb(49.803922%,54.901963%,55.29412%);stroke-opacity:1;stroke-miterlimit:4;" d="M 17.57373 15.548931 L 13.175 15.548931 C 13.029687 15.548931 12.89043 15.607525 12.7875 15.712377 C 12.681543 15.814145 12.624023 15.952919 12.624023 16.100946 L 12.624023 18.478618 C 12.624023 18.586554 12.657324 18.69449 12.720898 18.787007 C 12.781445 18.876439 12.869238 18.947368 12.969141 18.987459 L 13.741113 19.295847 C 14.788574 19.715255 15.960156 19.715255 17.010645 19.295847 L 17.77959 18.987459 C 17.88252 18.947368 17.970313 18.876439 18.030859 18.787007 C 18.091406 18.69449 18.124707 18.586554 18.124707 18.478618 L 18.124707 16.100946 C 18.124707 15.952919 18.067187 15.814145 17.964258 15.712377 C 17.861328 15.607525 17.72207 15.548931 17.57373 15.548931 Z M 17.57373 15.548931 " transform="matrix(1.290323,0,0,1.266667,0,0)"/>
</g>
</svg>
