<?xml version="1.0" encoding="UTF-8"?>
<svg xmlns="http://www.w3.org/2000/svg" xmlns:xlink="http://www.w3.org/1999/xlink" width="40px" height="40px" viewBox="0 0 40 38" version="1.1">
<g id="surface1">
<path style="fill:none;stroke-width:2.5;stroke-linecap:butt;stroke-linejoin:miter;stroke:rgb(49.803922%,54.901963%,55.29412%);stroke-opacity:1;stroke-miterlimit:4;" d="M 12.124023 1.250822 C 13.383789 1.250822 14.592285 1.751645 15.483398 2.64227 C 16.374512 3.532895 16.875 4.739309 16.875 6 C 16.875 7.260691 16.374512 8.467105 15.483398 9.35773 C 14.592285 10.250822 13.383789 10.749178 12.124023 10.749178 C 10.864258 10.749178 9.658203 10.250822 8.76709 9.35773 C 7.875977 8.467105 7.375488 7.260691 7.375488 6 C 7.375488 4.739309 7.875977 3.532895 8.76709 2.64227 C 9.658203 1.751645 10.864258 1.250822 12.124023 1.250822 Z M 12.126465 22.749178 L 11.999512 22.749178 C 11.916504 22.749178 11.791992 22.746711 11.630859 22.744243 C 11.311035 22.739309 10.852051 22.726974 10.302734 22.70477 C 9.196777 22.657895 7.734375 22.566612 6.279297 22.384046 C 4.807129 22.20148 3.425293 21.932566 2.438965 21.564967 C 1.943359 21.377467 1.630859 21.194901 1.464844 21.049342 C 1.416016 21.007401 1.38916 20.977796 1.374512 20.960526 C 1.398926 19.815789 2.402344 18.288651 4.492188 16.953947 C 6.530762 15.651316 9.299316 14.750822 12.124023 14.750822 C 14.951172 14.750822 17.719727 15.651316 19.758301 16.953947 C 21.848145 18.288651 22.851562 19.815789 22.873535 20.960526 C 22.861328 20.977796 22.834473 21.007401 22.785645 21.049342 C 22.619629 21.194901 22.307129 21.377467 21.811523 21.564967 C 20.825195 21.932566 19.443359 22.20148 17.971191 22.384046 C 16.516113 22.566612 15.053711 22.657895 13.947754 22.70477 C 13.395996 22.726974 12.937012 22.739309 12.617188 22.744243 C 12.458496 22.746711 12.333984 22.749178 12.248535 22.749178 Z M 1.362305 20.938322 C 1.362305 20.938322 1.364746 20.940789 1.367188 20.948191 C 1.362305 20.940789 1.362305 20.938322 1.362305 20.938322 Z M 22.888184 20.938322 C 22.888184 20.938322 22.888184 20.940789 22.883301 20.948191 C 22.885742 20.940789 22.888184 20.938322 22.888184 20.938322 Z M 22.888184 20.938322 " transform="matrix(1.6,0,0,1.583333,0,0)"/>
</g>
</svg>
