<?xml version="1.0" encoding="UTF-8"?>
<svg xmlns="http://www.w3.org/2000/svg" xmlns:xlink="http://www.w3.org/1999/xlink" width="40px" height="40px" viewBox="0 0 40 40" version="1.1">
<g id="surface1">
<path style="fill:none;stroke-width:2.5;stroke-linecap:round;stroke-linejoin:round;stroke:rgb(20.392157%,59.607846%,85.882354%);stroke-opacity:1;stroke-miterlimit:4;" d="M 9.72207 9.699219 C 9.607812 8.244336 9.945508 6.786914 10.684375 5.527539 C 11.425781 4.268164 12.535352 3.265234 13.860742 2.655859 C 15.188672 2.043945 16.671484 1.853516 18.108594 2.1125 C 19.548242 2.368945 20.873633 3.062109 21.904492 4.095508 C 22.937891 5.126367 23.631055 6.451758 23.8875 7.891406 C 24.146484 9.328516 23.956055 10.811328 23.344141 12.139258 C 22.734766 13.464648 21.731836 14.574219 20.472461 15.315625 C 19.213086 16.054492 17.755664 16.392187 16.300781 16.27793 " transform="matrix(1.538462,0,0,1.538462,0,0)"/>
<path style="fill:none;stroke-width:2.5;stroke-linecap:round;stroke-linejoin:round;stroke:rgb(20.392157%,59.607846%,85.882354%);stroke-opacity:1;stroke-miterlimit:4;" d="M 9.150781 23.999219 C 7.254102 23.999219 5.436133 23.247656 4.092969 21.907031 C 2.752344 20.563867 2.000781 18.745898 2.000781 16.849219 C 2.000781 14.952539 2.752344 13.13457 4.092969 11.793945 C 5.436133 10.45332 7.254102 9.699219 9.150781 9.699219 C 11.047461 9.699219 12.86543 10.45332 14.206055 11.793945 C 15.54668 13.13457 16.300781 14.952539 16.300781 16.849219 C 16.300781 18.745898 15.54668 20.563867 14.206055 21.907031 C 12.86543 23.247656 11.047461 23.999219 9.150781 23.999219 Z M 9.150781 23.999219 " transform="matrix(1.538462,0,0,1.538462,0,0)"/>
</g>
</svg>
